<svg viewBox="0 0 190 190" fill="none" xmlns="http://www.w3.org/2000/svg">
<g filter="url(#filter0_d)">
<path d="M63.7976 37.1458C68.8011 31.247 76.5347 28.4091 84.166 29.6717L108.575 33.71L132.917 38.1358C140.527 39.5195 146.852 44.7981 149.574 52.0382L158.281 75.1964L166.619 98.49C169.226 105.772 167.817 113.889 162.908 119.867L147.206 138.986L131.202 157.854C126.199 163.753 118.465 166.591 110.834 165.328L86.4248 161.29L62.0829 156.864C54.4727 155.48 48.1482 150.202 45.426 142.962L36.7186 119.804L28.3806 96.51C25.7738 89.2275 27.1829 81.111 32.092 75.1334L47.7938 56.0136L63.7976 37.1458Z" fill="white"/>
<path d="M109.112 30.7583L109.088 30.7541L109.065 30.7502L84.6557 26.7119C75.9838 25.2772 67.1955 28.502 61.5098 35.2053L45.506 54.073L45.4905 54.0912L45.4754 54.1096L29.7736 73.2295C24.1951 80.0222 22.5938 89.2455 25.5561 97.5211L33.8941 120.815L33.9022 120.837L33.9106 120.859L42.6179 144.018C45.7114 152.245 52.8983 158.243 61.5463 159.816L85.8882 164.242L85.9116 164.246L85.9352 164.25L110.344 168.288C119.016 169.723 127.804 166.498 133.49 159.795L149.494 140.927L149.509 140.909L149.525 140.89L165.226 121.771C170.805 114.978 172.406 105.755 169.444 97.4789L161.106 74.1853L161.098 74.1629L161.089 74.1405L152.382 50.9824C149.289 42.755 142.102 36.7566 133.454 35.1842L109.112 30.7583Z" stroke="black" stroke-width="6"/>
</g>
<path d="M52.5489 141.348H51.9446V136.24H53.5902C53.8406 136.24 54.0671 136.266 54.2697 136.319C54.4723 136.371 54.6521 136.451 54.8091 136.558C54.9662 136.665 55.088 136.808 55.1745 136.988C55.2609 137.168 55.3042 137.377 55.3042 137.616C55.3042 137.814 55.286 137.992 55.2496 138.149C55.2131 138.304 55.1506 138.449 55.0618 138.586C54.973 138.722 54.8569 138.836 54.7135 138.927C54.5701 139.016 54.3858 139.087 54.1604 139.139C53.9374 139.189 53.6779 139.214 53.382 139.214C53.1475 139.214 52.8698 139.199 52.5489 139.17V141.348ZM53.44 138.692C53.6631 138.692 53.8543 138.67 54.0136 138.627C54.1729 138.583 54.2947 138.53 54.3789 138.466C54.4654 138.403 54.5326 138.319 54.5804 138.217C54.6305 138.115 54.6612 138.021 54.6726 137.937C54.6839 137.851 54.6896 137.747 54.6896 137.626C54.6896 137.337 54.5918 137.124 54.396 136.988C54.2025 136.851 53.9385 136.783 53.6039 136.783H52.5489V138.685C52.9882 138.689 53.2852 138.692 53.44 138.692Z" fill="black"/>
<path d="M57.4568 136.769V138.477C57.5501 138.477 57.7425 138.479 58.0338 138.483C58.3274 138.488 58.5539 138.49 58.7132 138.49C59.148 138.49 59.4507 138.418 59.6214 138.275C59.7921 138.129 59.8775 137.9 59.8775 137.585C59.8775 137.31 59.7956 137.105 59.6317 136.971C59.4678 136.837 59.1935 136.769 58.8088 136.769H57.4568ZM60.6935 141.348H60.0107L59.3142 139.764C59.1252 139.338 59.0046 139.082 58.9522 138.995C58.7861 139.007 58.5892 139.013 58.3616 139.013L57.4568 138.985V141.348H56.8525V136.24H58.4674C58.6541 136.24 58.8191 136.245 58.9625 136.254C59.1059 136.263 59.2481 136.28 59.3893 136.305C59.5327 136.328 59.6567 136.361 59.7614 136.404C59.8661 136.445 59.964 136.5 60.055 136.568C60.1461 136.634 60.2189 136.714 60.2736 136.807C60.3305 136.9 60.3748 137.012 60.4067 137.142C60.4386 137.269 60.4545 137.414 60.4545 137.575C60.4545 137.894 60.3703 138.168 60.2019 138.398C60.0357 138.628 59.799 138.787 59.4917 138.876C59.4917 138.881 59.5145 138.922 59.56 138.999C59.6055 139.076 59.659 139.172 59.7204 139.286C59.7842 139.397 59.8331 139.491 59.8673 139.566L60.6935 141.348Z" fill="black"/>
<path d="M62.4637 141.348V136.298H65.359L65.3351 136.821H63.0544V138.473H65.2224V138.989H63.0544V140.826H65.4102L65.3829 141.348H62.4637Z" fill="black"/>
<path d="M69.526 141.037L67.9759 137.432L67.8462 137.087L67.8701 138.323V141.348H67.317V136.298H68.0818L69.8401 140.32L71.5814 136.298H72.3257V141.348H71.7521V138.309L71.776 137.101L71.6497 137.445L70.103 141.037H69.526Z" fill="black"/>
<path d="M75.0826 141.348H74.492V136.298H75.0826V141.348Z" fill="black"/>
<path d="M81.0182 136.298V139.576C81.0182 140.156 80.8589 140.609 80.5402 140.935C80.2238 141.26 79.7413 141.423 79.0926 141.423C78.4439 141.423 77.9647 141.26 77.6552 140.935C77.3456 140.609 77.1908 140.154 77.1908 139.569V136.298H77.7849V139.579C77.7849 140.037 77.893 140.374 78.1093 140.59C78.3255 140.806 78.6601 140.914 79.1131 140.914C79.5546 140.914 79.8835 140.805 80.0998 140.587C80.3183 140.368 80.4275 140.031 80.4275 139.576V136.298H81.0182Z" fill="black"/>
<path d="M85.3184 141.037L83.7683 137.432L83.6386 137.087L83.6625 138.323V141.348H83.1094V136.298H83.8742L85.6325 140.32L87.3738 136.298H88.1181V141.348H87.5445V138.309L87.5684 137.101L87.442 137.445L85.8954 141.037H85.3184Z" fill="black"/>
<path d="M92.7713 138.825C92.7713 139.473 92.9203 139.983 93.2185 140.354C93.5167 140.723 93.9571 140.907 94.5398 140.907C95.1225 140.907 95.5607 140.723 95.8543 140.354C96.1502 139.986 96.2982 139.476 96.2982 138.825C96.2982 138.16 96.1491 137.645 95.8509 137.278C95.555 136.912 95.1191 136.728 94.5433 136.728C93.9674 136.728 93.5281 136.912 93.2254 137.278C92.9226 137.645 92.7713 138.16 92.7713 138.825ZM96.9298 138.825C96.9298 139.209 96.8763 139.561 96.7693 139.88C96.6646 140.198 96.5121 140.473 96.3118 140.703C96.1138 140.93 95.8634 141.108 95.5607 141.235C95.258 141.36 94.9177 141.423 94.5398 141.423C94.03 141.423 93.593 141.315 93.2288 141.099C92.8669 140.88 92.5949 140.577 92.4128 140.19C92.2329 139.801 92.143 139.345 92.143 138.821C92.143 138.013 92.3536 137.376 92.7747 136.909C93.1958 136.443 93.7853 136.209 94.5433 136.209C95.2898 136.209 95.8737 136.445 96.2948 136.916C96.7181 137.385 96.9298 138.021 96.9298 138.825Z" fill="black"/>
<path d="M100.716 136.732C100.336 136.732 100.009 136.824 99.7332 137.008C99.46 137.193 99.2563 137.441 99.122 137.753C98.9877 138.065 98.9206 138.423 98.9206 138.828C98.9206 139.131 98.957 139.407 99.0298 139.658C99.1027 139.906 99.2119 140.124 99.3576 140.313C99.5033 140.5 99.6922 140.646 99.9244 140.75C100.159 140.853 100.427 140.904 100.73 140.904C101.119 140.904 101.522 140.803 101.939 140.6L102.038 141.102C101.699 141.316 101.24 141.423 100.662 141.423C100.282 141.423 99.9403 141.36 99.6376 141.235C99.3371 141.108 99.0879 140.929 98.8899 140.699C98.6941 140.467 98.545 140.192 98.4426 139.873C98.3402 139.552 98.2889 139.196 98.2889 138.804C98.2889 138.426 98.3447 138.078 98.4562 137.76C98.5678 137.441 98.7248 137.168 98.9274 136.94C99.1323 136.71 99.3872 136.532 99.6922 136.404C99.9972 136.277 100.336 136.213 100.71 136.213C101.276 136.213 101.754 136.338 102.144 136.588L101.911 137.07C101.538 136.845 101.14 136.732 100.716 136.732Z" fill="black"/>
<path d="M105.715 136.732C105.335 136.732 105.007 136.824 104.732 137.008C104.459 137.193 104.255 137.441 104.121 137.753C103.986 138.065 103.919 138.423 103.919 138.828C103.919 139.131 103.956 139.407 104.029 139.658C104.101 139.906 104.211 140.124 104.356 140.313C104.502 140.5 104.691 140.646 104.923 140.75C105.158 140.853 105.426 140.904 105.729 140.904C106.118 140.904 106.521 140.803 106.937 140.6L107.037 141.102C106.697 141.316 106.239 141.423 105.661 141.423C105.28 141.423 104.939 141.36 104.636 141.235C104.336 141.108 104.087 140.929 103.889 140.699C103.693 140.467 103.544 140.192 103.441 139.873C103.339 139.552 103.288 139.196 103.288 138.804C103.288 138.426 103.343 138.078 103.455 137.76C103.566 137.441 103.724 137.168 103.926 136.94C104.131 136.71 104.386 136.532 104.691 136.404C104.996 136.277 105.335 136.213 105.708 136.213C106.275 136.213 106.753 136.338 107.142 136.588L106.91 137.07C106.537 136.845 106.139 136.732 105.715 136.732Z" fill="black"/>
<path d="M110.95 139.252C110.469 137.856 110.204 137.072 110.154 136.899C110.154 136.899 109.877 137.683 109.324 139.252H110.95ZM111.731 141.348L111.141 139.747H109.126L108.515 141.348H107.914L109.854 136.288H110.458L112.339 141.348H111.731Z" fill="black"/>
<path d="M113.442 140.515C113.968 140.774 114.531 140.904 115.132 140.904C115.872 140.904 116.242 140.567 116.242 139.893C116.242 139.675 116.183 139.499 116.064 139.364C115.948 139.228 115.735 139.121 115.426 139.043L114.422 138.791C113.655 138.597 113.271 138.187 113.271 137.561C113.271 137.081 113.436 136.725 113.767 136.493C114.097 136.258 114.553 136.141 115.136 136.141C115.441 136.141 115.726 136.174 115.993 136.24C116.259 136.306 116.482 136.395 116.662 136.506L116.491 136.988C116.339 136.904 116.136 136.829 115.883 136.763C115.633 136.697 115.379 136.664 115.122 136.664C114.298 136.664 113.886 136.949 113.886 137.521C113.886 137.714 113.949 137.87 114.074 137.988C114.201 138.104 114.391 138.193 114.644 138.255L115.603 138.487C116.013 138.585 116.324 138.742 116.535 138.958C116.747 139.172 116.853 139.477 116.853 139.873C116.853 140.387 116.695 140.775 116.378 141.037C116.064 141.297 115.636 141.426 115.095 141.426C114.69 141.426 114.329 141.385 114.012 141.304C113.698 141.219 113.449 141.12 113.265 141.006L113.442 140.515Z" fill="black"/>
<path d="M118.943 141.348H118.352V136.298H118.943V141.348Z" fill="black"/>
<path d="M121.179 138.825C121.179 139.473 121.328 139.983 121.627 140.354C121.925 140.723 122.365 140.907 122.948 140.907C123.531 140.907 123.969 140.723 124.262 140.354C124.558 139.986 124.706 139.476 124.706 138.825C124.706 138.16 124.557 137.645 124.259 137.278C123.963 136.912 123.527 136.728 122.951 136.728C122.376 136.728 121.936 136.912 121.633 137.278C121.331 137.645 121.179 138.16 121.179 138.825ZM125.338 138.825C125.338 139.209 125.284 139.561 125.177 139.88C125.073 140.198 124.92 140.473 124.72 140.703C124.522 140.93 124.272 141.108 123.969 141.235C123.666 141.36 123.326 141.423 122.948 141.423C122.438 141.423 122.001 141.315 121.637 141.099C121.275 140.88 121.003 140.577 120.821 140.19C120.641 139.801 120.551 139.345 120.551 138.821C120.551 138.013 120.762 137.376 121.183 136.909C121.604 136.443 122.193 136.209 122.951 136.209C123.698 136.209 124.282 136.445 124.703 136.916C125.126 137.385 125.338 138.021 125.338 138.825Z" fill="black"/>
<path d="M130.897 141.348H130.227L127.605 137.374L127.435 137.138C127.453 137.616 127.462 138.043 127.462 138.418V141.348H126.909V136.298H127.568L130.197 140.272L130.371 140.508C130.355 139.782 130.347 139.362 130.347 139.248V136.298H130.897V141.348Z" fill="black"/>
<path d="M132.583 140.515C133.109 140.774 133.673 140.904 134.274 140.904C135.013 140.904 135.383 140.567 135.383 139.893C135.383 139.675 135.324 139.499 135.206 139.364C135.09 139.228 134.877 139.121 134.567 139.043L133.563 138.791C132.796 138.597 132.413 138.187 132.413 137.561C132.413 137.081 132.578 136.725 132.908 136.493C133.238 136.258 133.694 136.141 134.277 136.141C134.582 136.141 134.868 136.174 135.134 136.24C135.4 136.306 135.623 136.395 135.803 136.506L135.632 136.988C135.48 136.904 135.277 136.829 135.025 136.763C134.774 136.697 134.521 136.664 134.263 136.664C133.439 136.664 133.027 136.949 133.027 137.521C133.027 137.714 133.09 137.87 133.215 137.988C133.343 138.104 133.533 138.193 133.785 138.255L134.745 138.487C135.154 138.585 135.465 138.742 135.677 138.958C135.888 139.172 135.994 139.477 135.994 139.873C135.994 140.387 135.836 140.775 135.52 141.037C135.206 141.297 134.778 141.426 134.236 141.426C133.831 141.426 133.47 141.385 133.154 141.304C132.84 141.219 132.59 141.12 132.406 141.006L132.583 140.515Z" fill="black"/>
<path fill-rule="evenodd" clip-rule="evenodd" d="M85.6669 34.3326C80.5827 33.4914 75.453 34.4703 71.1155 36.9619H101.56L85.6669 34.3326ZM65.2985 41.8067L63.8717 43.4889L118.623 44.4537L62.2497 45.4011L57.0882 51.4863L136.604 52.6947L55.2562 53.6461L51.0148 58.6465L37.0006 75.7113C32.0916 81.6889 30.6824 89.8054 33.2893 97.0879L40.7311 117.878L45.6121 130.859H147.29L157.337 118.625C162.246 112.647 163.655 104.531 161.048 97.2484L153.606 76.4584L146.341 57.1346C144.478 57.1081 142.138 57.0756 139.382 57.0373H139.382C129.787 56.9038 115.159 56.7003 98.1456 56.4406L145.706 55.4549C144.761 53.0602 143.419 50.8871 141.767 49.0073C134.636 49.134 115.945 49.1496 85.6592 48.4493L140.316 47.507C137.272 44.6445 133.425 42.6592 129.178 41.8869L126.813 41.457H121.87C103.344 41.3707 61.6854 40.7078 74.4215 40.4581C80.2665 40.3434 87.5398 40.2379 95.0474 40.1289L95.0476 40.1289L95.0478 40.1289C102.725 40.0174 110.648 39.9024 117.538 39.7706L110.331 38.4602H68.845C67.5569 39.4298 66.3656 40.5486 65.2985 41.8067ZM133.863 146.842H54.0354C57.0769 149.698 60.9186 151.678 65.1596 152.449L68.821 153.115C79.0484 153.242 95.0982 153.598 116.126 154.084L76.3595 154.486L86.8851 156.399L93.0029 157.412L124 156.906C125.867 155.729 127.571 154.261 129.039 152.53L130.31 151.031L65.681 149.839L131.979 149.063L133.863 146.842ZM120.653 158.635L96.3141 157.959L108.671 160.004C112.783 160.684 116.925 160.174 120.653 158.635Z" fill="url(#paint0_linear)"/>
<path d="M69.8994 61.2007L69.7148 60.4352H68.9273H56.4409H55.4409V61.4352V96.8964V97.8964H56.4409H63.9848H64.9848V96.8964V75.0458L70.5635 95.6053L70.7638 96.3434H71.5286H78.8123H79.5718L79.7756 95.6118L85.6163 74.6482V96.8964V97.8964H86.6163H93.9H94.9V96.8964V61.4352V60.4352H93.9H81.4137H80.6262L80.4415 61.2007L75.1705 83.0544L69.8994 61.2007Z" fill="black" stroke="white" stroke-width="2"/>
<path d="M119.398 97.1309L119.583 97.8964L120.371 97.8964L132.857 97.8964L133.857 97.8964L133.857 96.8964L133.857 61.4351L133.857 60.4351L132.857 60.4351L125.313 60.4351L124.313 60.4351L124.313 61.4351L124.313 83.2858L118.734 62.7263L118.534 61.9882L117.769 61.9882L110.486 61.9882L109.726 61.9882L109.522 62.7198L103.682 83.6834L103.682 61.4351L103.682 60.4351L102.682 60.4351L95.3978 60.4351L94.3978 60.4351L94.3978 61.4351L94.3978 96.8964L94.3978 97.8964L95.3978 97.8964L107.884 97.8964L108.672 97.8964L108.856 97.1309L114.127 75.2772L119.398 97.1309Z" fill="black" stroke="white" stroke-width="2"/>
<path d="M64.6157 125.824L64.6442 125.826H64.6727C65.2053 125.826 65.6954 125.837 66.1703 125.847C68.0139 125.887 69.6268 125.923 72.5936 125.306L73.2752 125.164L73.1747 125.576H74.448H78.9016H79.6592L79.8642 124.847L80.9361 121.036H87.6116L88.464 124.797L88.6405 125.576H89.4393H93.9986H95.2567L94.9727 124.351L89.7107 101.638L89.5313 100.863H88.7365H79.9902H79.2049L79.0187 101.626L73.4765 124.339L73.39 124.694V124.327V120.583V119.37L72.1995 119.601C70.9474 119.844 69.1106 120.109 67.5057 120.199C66.3585 120.264 65.5625 120.209 64.9421 120.019C64.3616 119.841 63.8797 119.527 63.3925 118.955C62.1013 117.273 62.0713 115.486 62.0713 112.845C62.0713 110.339 62.2819 108.863 63.2663 107.679L62.4975 107.04L63.2658 107.68C63.3066 107.631 63.3456 107.584 63.383 107.539C63.6434 107.226 63.8249 107.008 63.9889 106.835C64.166 106.649 64.274 106.569 64.3623 106.523C64.5529 106.422 64.8554 106.357 65.9589 106.357C67.7486 106.357 70.9988 106.605 72.1996 106.838L73.39 107.069V105.857V102.362V101.635L72.6977 101.411C70.6625 100.753 69.531 100.64 68.31 100.518C68.0723 100.494 67.8313 100.47 67.5796 100.441L67.5235 100.435H67.467C67.0564 100.435 66.6258 100.425 66.1848 100.414C64.9578 100.385 63.6506 100.354 62.4724 100.536C60.7697 100.799 59.1534 101.516 57.9319 103.294C56.1399 105.902 55.4409 109.752 55.4409 112.845C55.4409 116.551 55.9576 120.122 57.6484 122.856L57.6758 122.9L57.7077 122.942C58.118 123.472 58.6764 124.176 59.7741 124.746C60.8441 125.302 62.3483 125.695 64.6157 125.824ZM96.2088 124.421V125.421H97.2088H101.716H102.716V124.421V117.848L105.034 117.87V117.87H105.043C105.383 117.87 105.607 117.865 105.764 117.859C105.795 117.875 105.826 117.888 105.853 117.899C105.874 117.927 105.901 117.966 105.936 118.02C106.049 118.196 106.213 118.485 106.442 118.955L108.22 124.716L108.438 125.421H109.176H114.578H116.09L115.498 124.03L113.44 119.193L113.428 119.165L113.415 119.137C113.059 118.425 112.841 117.814 112.644 117.26C112.625 117.206 112.606 117.154 112.587 117.101L112.584 117.093C112.52 116.914 112.451 116.722 112.372 116.529C113.518 115.81 114.274 114.689 114.755 113.485C115.369 111.945 115.578 110.171 115.578 108.602C115.578 107.502 115.424 106.502 115.087 105.624C114.77 104.765 114.316 104.026 113.704 103.443C113.664 103.404 113.618 103.359 113.568 103.31C113.356 103.101 113.065 102.814 112.754 102.552C112.375 102.231 111.873 101.863 111.308 101.668C111.213 101.634 111.12 101.6 111.028 101.567C110.412 101.341 109.83 101.127 108.96 101.024C108.054 100.915 107 100.863 105.803 100.863H97.2088H96.2088V101.863V124.421ZM116.925 124.281L116.857 125.209L117.777 125.344C121.187 125.843 122.359 125.844 125.183 125.844C127.967 125.844 130.303 125.241 132.089 123.93L132.093 123.928C134.062 122.469 134.357 120.379 134.357 118.179C134.357 118.126 134.357 118.072 134.357 118.019C134.357 117.205 134.358 116.378 134.242 115.634C134.114 114.813 133.835 114.006 133.203 113.315C132.123 112.122 130.415 111.214 128.224 110.516L128.218 110.514C127.922 110.422 127.277 110.222 126.286 109.915C125.286 109.605 124.689 109.413 124.464 109.331L124.436 109.321L124.407 109.312C123.91 109.165 123.632 108.962 123.473 108.759C123.321 108.566 123.211 108.287 123.207 107.85C123.244 107.061 123.495 106.694 123.791 106.496L123.794 106.494C124.171 106.241 124.676 106.135 125.958 106.135C127.772 106.135 130.684 106.142 132.593 106.633L133.842 106.954V105.664V102.639V101.889L133.122 101.679C130.466 100.906 128.856 100.641 125.958 100.641C123.345 100.641 121.132 101.227 119.414 102.495L119.411 102.497C117.642 103.812 116.776 105.696 116.776 108.014C116.776 109.655 117.219 111.105 118.156 112.301C119.082 113.482 120.428 114.337 122.105 114.913C122.377 115.015 122.789 115.153 123.329 115.324L123.34 115.328L123.351 115.331C123.91 115.495 124.507 115.669 125.141 115.853L125.148 115.855L125.155 115.857C125.793 116.033 126.165 116.137 126.289 116.174L126.298 116.176L126.306 116.179C127.164 116.418 127.625 116.727 127.876 117.02C128.111 117.296 128.241 117.654 128.241 118.179C128.241 119.232 128.117 119.576 127.811 119.831C127.364 120.19 126.599 120.45 125.357 120.45C122.319 120.45 119.406 120.064 118.356 119.876L117.264 119.68L117.182 120.786L116.925 124.281ZM82.1839 115.589L84.192 106.626C84.2327 106.626 84.2735 106.625 84.314 106.625C84.3416 106.625 84.3693 106.624 84.3968 106.624L86.3782 115.589H82.1839ZM108.298 111.563C108.149 111.679 108.044 111.765 107.966 111.829C107.799 111.964 107.75 112.005 107.641 112.051C107.514 112.105 107.245 112.174 106.448 112.174H106.447H106.446H106.445H106.444H106.443H106.442H106.441H106.44H106.439H106.437H106.436H106.435H106.434H106.433H106.432H106.43H106.429H106.428H106.427H106.425H106.424H106.423H106.421H106.42H106.419H106.417H106.416H106.415H106.413H106.412H106.41H106.409H106.408H106.406H106.405H106.403H106.402H106.4H106.399H106.397H106.395H106.394H106.392H106.391H106.389H106.387H106.386H106.384H106.382H106.381H106.379H106.377H106.376H106.374H106.372H106.37H106.368H106.367H106.365H106.363H106.361H106.359H106.357H106.356H106.354H106.352H106.35H106.348H106.346H106.344H106.342H106.34H106.338H106.336H106.334H106.332H106.33H106.328H106.325H106.323H106.321H106.319H106.317H106.315H106.312H106.31H106.308H106.306H106.304H106.301H106.299H106.297H106.294H106.292H106.29H106.287H106.285H106.283H106.28H106.278H106.275H106.273H106.271H106.268H106.266H106.263H106.261H106.258H106.256H106.253H106.25H106.248H106.245H106.243H106.24H106.237H106.235H106.232H106.229H106.227H106.224H106.221H106.219H106.216H106.213H106.21H106.207H106.205H106.202H106.199H106.196H106.193H106.19H106.188H106.185H106.182H106.179H106.176H106.173H106.17H106.167H106.164H106.161H106.158H106.155H106.152H106.149H106.146H106.142H106.139H106.136H106.133H106.13H106.127H106.124H106.12H106.117H106.114H106.111H106.107H106.104H106.101H106.097H106.094H106.091H106.087H106.084H106.081H106.077H106.074H106.071H106.067H106.064H106.06H106.057H106.053H106.05H106.046H106.043H106.039H106.036H106.032H106.028H106.025H106.021H106.018H106.014H106.01H106.007H106.003H105.999H105.995H105.992H105.988H105.984H105.98H105.977H105.973H105.969H105.965H105.961H105.958H105.954H105.95H105.946H105.942H105.938H105.934H105.93H105.926H105.922H105.918H105.914H105.91H105.906H105.902H105.898H105.894H105.89H105.886H105.881H105.877H105.873H105.869H105.865H105.861H105.856H105.852H105.848H105.844H105.839H105.835H105.831H105.826H105.822H105.818H105.813H105.809H105.805H105.8H105.796H105.791H105.787H105.783H105.778H105.774H105.769H105.765H105.76H105.755H105.751H105.746H105.742H105.737H105.733H105.728H105.723H105.719H105.714H105.709H105.705H105.7H105.695H105.69H105.686H105.681H105.676H105.671H105.666H105.662H105.657H105.652H105.647H105.642H105.637H105.632H105.627H105.622H105.617H105.613H105.608H105.603H105.598H105.592H105.587H105.582H105.577H105.572H105.567H105.562H105.557H105.552H105.547H105.541H105.536H105.531H105.526H105.521H105.515H105.51H105.505H105.5H105.494H105.489H105.484H105.478H105.473H105.468H105.462H105.457H105.451H105.446H105.44H105.435H105.43H105.424H105.419H105.413H105.408H105.402H105.396H105.391H105.385H105.38H105.374H105.368H105.363H105.357H105.351H105.346H105.34H105.334H105.329H105.323H105.317H105.311H105.306H105.3H105.294H105.288H105.282H105.276H105.271H105.265H105.259H105.253H105.247H105.241H105.235H105.229H105.223H105.217H105.211H105.205H105.199H105.193H105.187H105.181H105.175H105.169H105.163H105.156H105.15H105.144H105.138H105.132H105.125H105.119H105.113H105.107H105.1H105.094H105.088H105.082H105.075H105.069H105.063H105.056H105.05H105.043H105.037H105.031H105.024H105.018H105.011H105.005H104.998H104.992H104.985H104.979H104.972H104.966H104.959H104.952H104.946H104.939H104.932H104.926H104.919H104.912H104.906H104.899H104.892H104.886H104.879H104.872H104.865H104.859H104.852H104.845H104.838H104.831H104.824H104.817H104.811H104.804H104.797H104.79H104.783H104.776H104.769H104.762H104.755H104.748H104.741H104.734H104.727H104.72H104.713H104.705H104.698H104.691H104.684H104.677H104.67H104.662H104.655H104.648H104.641H104.634H104.626H104.619H104.612H104.604H104.597H104.59H104.582H104.575H104.568H104.56H104.553H104.545H104.538H104.531H104.523H104.516H104.508H104.501H104.493H104.486H104.478H104.47H104.463H104.455H104.448H104.44H104.432H104.425H104.417H104.409H104.402H104.394H104.386H104.379H104.371H104.363H104.355H104.347H104.34H104.332H104.324H104.316H104.308H104.3H104.293H104.285H104.277H104.269H104.261H104.253H104.245H104.237H104.229H104.221H104.213H104.205H104.197H104.189H104.181H104.172H104.164H104.156H104.148H104.14H104.132H104.123H104.115H104.107H104.099H104.091H104.082H104.078C103.53 112.17 103.076 112.167 102.716 112.164V106.857H106.638C107.372 106.857 107.525 106.928 107.572 106.953C107.6 106.968 107.645 106.998 107.752 107.102C107.803 107.152 107.858 107.208 107.931 107.282L107.947 107.298C108.025 107.377 108.117 107.47 108.222 107.573C108.755 108.09 108.977 108.696 108.977 109.601C108.977 110.686 108.689 111.248 108.298 111.563Z" fill="black" stroke="white" stroke-width="2"/>
<defs>
<filter id="filter0_d" x="0.515137" y="0.719879" width="193.97" height="201.56" filterUnits="userSpaceOnUse" color-interpolation-filters="sRGB">
<feFlood flood-opacity="0" result="BackgroundImageFix"/>
<feColorMatrix in="SourceAlpha" type="matrix" values="0 0 0 0 0 0 0 0 0 0 0 0 0 0 0 0 0 0 127 0"/>
<feOffset dy="4"/>
<feGaussianBlur stdDeviation="2"/>
<feColorMatrix type="matrix" values="0 0 0 0 0 0 0 0 0 0 0 0 0 0 0 0 0 0 0.25 0"/>
<feBlend mode="normal" in2="BackgroundImageFix" result="effect1_dropShadow"/>
<feBlend mode="normal" in="SourceGraphic" in2="effect1_dropShadow" result="shape"/>
</filter>
<linearGradient id="paint0_linear" x1="28.2665" y1="97.3928" x2="194.454" y2="77.2076" gradientUnits="userSpaceOnUse">
<stop stop-color="#ACA99A"/>
<stop offset="0.21875" stop-color="#E0E1E2"/>
<stop offset="0.466433" stop-color="#848B8D"/>
<stop offset="0.702986" stop-color="#B3BBC0"/>
<stop offset="0.892162" stop-color="#DBDBDB"/>
</linearGradient>
</defs>
</svg>
