<svg width="400" height="100" viewBox="0 0 400 100" fill="none" xmlns="http://www.w3.org/2000/svg">
<path fill-rule="evenodd" clip-rule="evenodd" d="M56.6971 25.9511C54.223 27.514 52.36 29.3838 51.4457 30.5555L49.7061 32.7849L48.0523 30.4915C44.9357 26.1697 40.1539 23.6469 35.3809 23.4487C30.6722 23.2531 25.8545 25.3096 22.4815 30.4197C19.893 34.3412 19.8007 38.8989 20.9101 43.2265C22.023 47.5678 24.2916 51.4251 26.0089 53.5994L26.0128 53.6042L26.0166 53.6091C33.6667 63.4125 44.3042 72.5145 49.7366 76.6752C61.5856 67.1832 70.7394 57.3442 73.8702 53.5617L73.8711 53.5607C82.4273 43.2373 79.7348 33.6305 77.6563 30.3986L77.6516 30.3914L77.6471 30.3842C76.9353 29.2574 75.389 27.4289 73.1928 25.8979C71.012 24.3774 68.3001 23.2242 65.2121 23.2242C62.1063 23.2242 59.1686 24.3898 56.6971 25.9511ZM54.4282 22.3832C57.3301 20.55 61.0524 19 65.2121 19C69.3896 19 72.934 20.5624 75.6221 22.4364C78.2907 24.2969 80.224 26.5378 81.2289 28.1262C84.1941 32.7441 86.9829 44.3726 77.1395 56.25C73.7218 60.379 63.8068 71.007 51.085 81.0045L49.8183 82L48.5183 81.0481C43.485 77.3623 31.3136 67.276 22.6749 56.2073C20.6592 53.6538 18.0867 49.2763 16.8038 44.2723C15.5166 39.2513 15.4748 33.349 18.9408 28.098C23.136 21.7423 29.3679 18.9711 35.5573 19.2281C40.869 19.4487 46.0601 21.8919 49.8535 26.0151C51.0559 24.8279 52.6091 23.5323 54.4282 22.3832Z" fill="white"/>
<path fill-rule="evenodd" clip-rule="evenodd" d="M173.437 65.8241L173.437 65.8234L173.446 65.8045C173.453 65.788 173.465 65.7614 173.482 65.7253C173.515 65.6529 173.565 65.5422 173.629 65.397C173.758 65.1065 173.945 64.6785 174.171 64.143C174.624 63.0692 175.227 61.5767 175.828 59.9013C177.088 56.3862 178.122 52.6441 178.122 50.2173C178.122 34.6179 165.35 21.9051 149.512 21.9051C133.674 21.9051 120.901 34.6179 120.901 50.2173C120.901 65.8168 133.674 78.5296 149.512 78.5296C151.951 78.5296 155.702 77.5233 159.21 76.3047C160.885 75.723 162.377 75.1392 163.451 74.7005C163.986 74.4817 164.414 74.3004 164.705 74.1754C164.85 74.1129 164.961 74.0645 165.033 74.0327L165.112 73.9976L165.13 73.9899L165.132 73.9891L165.132 73.9888L166.699 73.2864L168.276 73.9696C172.343 75.7323 175.428 77.0669 177.744 77.9523C176.773 75.7891 175.352 72.9407 173.488 69.2125L172.647 67.5303L173.437 65.8241ZM176.977 67.465C181.581 76.6748 183.899 81.3119 182.677 82.6111C181.437 83.9286 176.556 81.8134 166.726 77.5533C166.726 77.5533 155.833 82.4347 149.512 82.4347C131.556 82.4347 117 68.0105 117 50.2173C117 32.4242 131.556 18 149.512 18C167.467 18 182.023 32.4242 182.023 50.2173C182.023 56.562 176.977 67.465 176.977 67.465ZM179.105 81.693C179.103 81.692 179.101 81.671 179.1 81.633C179.105 81.6751 179.106 81.694 179.105 81.693ZM181.483 79.0947C181.533 79.0927 181.562 79.095 181.563 79.0967C181.565 79.0983 181.54 79.0993 181.483 79.0947Z" fill="white"/>
<path fill-rule="evenodd" clip-rule="evenodd" d="M250.5 50.381C259.305 50.381 266.344 43.4411 266.344 35C266.344 26.5589 259.305 19.619 250.5 19.619C241.695 19.619 234.656 26.5589 234.656 35C234.656 43.4411 241.695 50.381 250.5 50.381ZM250.5 54C261.27 54 270 45.4934 270 35C270 24.5066 261.27 16 250.5 16C239.73 16 231 24.5066 231 35C231 45.4934 239.73 54 250.5 54Z" fill="white"/>
<path fill-rule="evenodd" clip-rule="evenodd" d="M215 79.7632C215 69.4006 223.422 61 233.812 61H267.188C277.578 61 286 69.4006 286 79.7632V84H282.359V79.7632C282.359 71.4062 275.567 64.6316 267.188 64.6316H233.812C225.433 64.6316 218.641 71.4062 218.641 79.7632V84H215V79.7632Z" fill="white"/>
<path fill-rule="evenodd" clip-rule="evenodd" d="M350 80.3571C366.766 80.3571 380.357 66.7658 380.357 50C380.357 33.2342 366.766 19.6429 350 19.6429C333.234 19.6429 319.643 33.2342 319.643 50C319.643 66.7658 333.234 80.3571 350 80.3571ZM350 84C368.778 84 384 68.7777 384 50C384 31.2223 368.778 16 350 16C331.222 16 316 31.2223 316 50C316 68.7777 331.222 84 350 84Z" fill="white"/>
<path fill-rule="evenodd" clip-rule="evenodd" d="M351 26V51H348V26H351Z" fill="black"/>
<path fill-rule="evenodd" clip-rule="evenodd" d="M366 54L348 54L348 50L366 50L366 54Z" fill="black"/>
</svg>
