<svg width="1350" height="1350" viewBox="70 70 1600 1600" xmlns="http://www.w3.org/2000/svg" xmlns:xlink="http://www.w3.org/1999/xlink">
<defs>
    <linearGradient id="gradient" x1="0%" y1="0%" x2="0%" y2="100%">
      <stop offset="0%" stop-color="#61d7d7" />
      <stop offset="100%" stop-color="#5eaefd" />
    </linearGradient>
  </defs>
<g>
<clipPath id="hest">
    <path d="M 540.1 267.2 C 576.1 224.9 631.6 204.5 686.4 213.6 L 961.7 259.1 L 1236.3 309 C 1290.9 319 1336.3 356.9 1355.9 408.9 L 1454.1 670.1 L 1548.2 932.8 C 1566.9 985.1 1556.8 1043.4 1521.5 1086.3 L 1344.4 1302 L 1163.9 1514.8 C 1128 1557.2 1072.4 1577.5 1017.6 1568.5 L 742.3 1522.9 L 467.8 1473 C 413.1 1463.1 367.7 1425.2 348.1 1373.2 L 249.9 1112 L 155.9 849.2 C 137.2 796.9 147.3 738.6 182.5 695.7 L 359.6 480.1 L 540.1 267.2 Z" />    
</clipPath>
<path stroke="url(#gradient)" stroke-opacity="70%" stroke-width="130" d="M 540.1 267.2 C 576.1 224.9 631.6 204.5 686.4 213.6 L 961.7 259.1 L 1236.3 309 C 1290.9 319 1336.3 356.9 1355.9 408.9 L 1454.1 670.1 L 1548.2 932.8 C 1566.9 985.1 1556.8 1043.4 1521.5 1086.3 L 1344.4 1302 L 1163.9 1514.8 C 1128 1557.2 1072.4 1577.5 1017.6 1568.5 L 742.3 1522.9 L 467.8 1473 C 413.1 1463.1 367.7 1425.2 348.1 1373.2 L 249.9 1112 L 155.9 849.2 C 137.2 796.9 147.3 738.6 182.5 695.7 L 359.6 480.1 L 540.1 267.2 Z" />    
</g>
<image height="1679" width="4000" clip-path="url(#hest)" x="-444.6" y="-83.7" href="../assets/nieuwbouwimg/2020-02-13_1 - Photo.jpg" />
</svg>
