<svg width="330" height="349" viewBox="0 0 330 349" fill="none" xmlns="http://www.w3.org/2000/svg">
<g filter="url(#filter0_d)">
<path d="M106.775 51.1454C113.295 43.4586 123.373 39.7606 133.317 41.4058L186.149 50.1464L238.835 59.7258C248.752 61.5289 256.994 68.4075 260.541 77.8421L279.388 127.966L297.435 178.383C300.832 187.873 298.995 198.45 292.598 206.239L258.613 247.623L223.974 288.461C217.454 296.148 207.376 299.846 197.432 298.2L144.6 289.46L91.9136 279.88C81.9966 278.077 73.7552 271.199 70.2078 261.764L51.3614 211.64L33.3143 161.223C29.9173 151.733 31.7536 141.156 38.1506 133.367L72.1361 91.9833L106.775 51.1454Z" fill="#57BBF3"/>
<path d="M163.791 89C168.206 89 171.695 90.2732 174.259 92.8197C176.965 95.3661 178.318 98.9736 178.318 103.642C178.318 108.311 176.965 111.918 174.259 114.465C171.695 117.011 168.206 118.284 163.791 118.284C159.376 118.284 155.815 117.011 153.109 114.465C150.545 111.918 149.264 108.311 149.264 103.642C149.264 98.9736 150.545 95.3661 153.109 92.8197C155.815 90.2732 159.376 89 163.791 89ZM174.473 223.963L189 230.329V242H142V230.329L156.527 223.963V153.51L142 147.569V135.473H174.473V223.963Z" fill="white"/>
</g>
<defs>
<filter id="filter0_d" x="0.749023" y="0.939209" width="329.251" height="347.728" filterUnits="userSpaceOnUse" color-interpolation-filters="sRGB">
<feFlood flood-opacity="0" result="BackgroundImageFix"/>
<feColorMatrix in="SourceAlpha" type="matrix" values="0 0 0 0 0 0 0 0 0 0 0 0 0 0 0 0 0 0 127 0"/>
<feOffset dy="6"/>
<feGaussianBlur stdDeviation="2"/>
<feColorMatrix type="matrix" values="0 0 0 0 0 0 0 0 0 0 0 0 0 0 0 0 0 0 0.4 0"/>
<feBlend mode="normal" in2="BackgroundImageFix" result="effect1_dropShadow"/>
<feBlend mode="normal" in="SourceGraphic" in2="effect1_dropShadow" result="shape"/>
</filter>
</defs>
</svg>
