<svg viewBox="0 0 290 280" fill="none" xmlns="http://www.w3.org/2000/svg">
<g filter="url(#filter0_d)">
<path d="M80.0261 10.2062C86.5461 2.51938 96.6239 -1.17865 106.568 0.466563L159.4 9.20716L212.086 18.7865C222.003 20.5896 230.245 27.4682 233.792 36.9029L252.639 87.0269L270.686 137.444C274.083 146.934 272.246 157.511 265.849 165.3L231.864 206.684L197.225 247.522C190.705 255.208 180.627 258.906 170.683 257.261L117.851 248.521L65.1645 238.941C55.2475 237.138 47.0061 230.26 43.4587 220.825L24.6123 170.701L6.56518 120.284C3.16823 110.794 5.00453 100.217 11.4015 92.4276L45.387 51.0441L80.0261 10.2062Z" fill="#57BBF3"/>
</g>
<path d="M137.042 48.0608C141.457 48.0608 144.946 49.334 147.51 51.8805C150.216 54.4269 151.569 58.0344 151.569 62.703C151.569 67.3715 150.216 70.979 147.51 73.5254C144.946 76.0719 141.457 77.3451 137.042 77.3451C132.627 77.3451 129.066 76.0719 126.36 73.5254C123.796 70.979 122.515 67.3715 122.515 62.703C122.515 58.0344 123.796 54.4269 126.36 51.8805C129.066 49.334 132.627 48.0608 137.042 48.0608ZM147.724 183.023L162.251 189.39V201.061H115.251V189.39L129.778 183.023V112.571L115.251 106.629V94.5337H147.724V183.023Z" fill="white"/>
<defs>
<filter id="filter0_d" x="0.887695" y="0.081543" width="275.475" height="265.565" filterUnits="userSpaceOnUse" color-interpolation-filters="sRGB">
<feFlood flood-opacity="0" result="BackgroundImageFix"/>
<feColorMatrix in="SourceAlpha" type="matrix" values="0 0 0 0 0 0 0 0 0 0 0 0 0 0 0 0 0 0 127 0"/>
<feOffset dy="4"/>
<feGaussianBlur stdDeviation="6"/>
<feColorMatrix type="matrix" values="0 0 0 0 0 0 0 0 0 0 0 0 0 0 0 0 0 0 0.45 0"/>
<feBlend mode="normal" in2="BackgroundImageFix" result="effect1_dropShadow"/>
<feBlend mode="normal" in="SourceGraphic" in2="effect1_dropShadow" result="shape"/>
</filter>
</defs>
</svg>
