<svg viewBox="0 0 295 295" fill="none" xmlns="http://www.w3.org/2000/svg">
<path d="M87.8138 10.838C92.8173 4.93914 100.551 2.10129 108.182 3.36382L169.383 13.489L230.415 24.5858C238.025 25.9695 244.35 31.2481 247.072 38.4883L268.904 96.5524L289.81 154.956C292.417 162.239 291.008 170.355 286.099 176.333L246.729 224.272L206.603 271.579C201.6 277.478 193.866 280.315 186.235 279.053L125.034 268.928L64.0018 257.831C56.3916 256.447 50.0671 251.169 47.3449 243.928L25.5131 185.864L4.60712 127.46C2.00031 120.178 3.40949 112.061 8.31852 106.084L47.6876 58.145L87.8138 10.838Z" fill="white"/>
<path fill-rule="evenodd" clip-rule="evenodd" d="M169.896 10.5332L230.952 21.6343C239.6 23.2066 246.787 29.2051 249.88 37.4325L271.72 95.5189L292.634 153.945C295.597 162.221 293.995 171.444 288.417 178.237L249.033 226.194L208.891 273.519C203.205 280.223 194.417 283.447 185.745 282.013L124.521 271.884L63.4652 260.783C54.8172 259.21 47.6303 253.212 44.5368 244.984L22.6966 186.898L1.78266 128.472C-1.17962 120.196 0.421719 110.973 6.00016 104.18L45.3844 56.2226L85.526 8.89746C91.2117 2.19425 100 -1.03058 108.672 0.404116L169.896 10.5332ZM125.034 268.928L64.0019 257.831C56.3916 256.447 50.0672 251.169 47.3449 243.928L25.5131 185.864L4.60716 127.461C2.00035 120.178 3.40953 112.062 8.31856 106.084L47.6876 58.145L87.8139 10.838C92.8173 4.9392 100.551 2.10135 108.182 3.36388L169.383 13.489L230.415 24.5859C238.026 25.9696 244.35 31.2482 247.072 38.4883L268.904 96.5524L289.81 154.956C292.417 162.239 291.008 170.355 286.099 176.333L246.729 224.272L206.603 271.579C201.6 277.478 193.866 280.315 186.235 279.053L125.034 268.928Z" fill="black"/>
<path d="M90.8174 20.1705C95.8209 14.2717 103.555 11.4338 111.186 12.6963L167.134 21.9525L222.928 32.0969C230.538 33.4805 236.862 38.7592 239.585 45.9993L259.543 99.0798L278.654 152.471C281.261 159.753 279.852 167.87 274.943 173.847L238.953 217.672L202.271 260.918C197.267 266.817 189.533 269.655 181.902 268.393L125.954 259.136L70.1603 248.992C62.5501 247.608 56.2256 242.33 53.5033 235.09L33.5454 182.009L14.4338 128.618C11.827 121.336 13.2361 113.219 18.1452 107.241L54.1352 63.4171L90.8174 20.1705Z" fill="url(#paint0_linear)"/>
<path d="M38.5 208H252L226 240H51L38.5 208Z" fill="white"/>
<path d="M90 69H65V140H80.1042V85.0657H81.1458L95.2083 136.891H109.792L124.375 84.5474H125.417V140H140V69H115L102.5 120.825L90 69Z" fill="black"/>
<path fill-rule="evenodd" clip-rule="evenodd" d="M62 66H92.3624L102.5 108.03L112.638 66H143V143H122.417V102.754L112.07 139.891H92.9139L83.1042 103.739V143H62V66ZM80.1042 85.0657H81.1458L95.2083 136.891H109.792L124.375 84.5474H125.417V140H140V69H115L102.5 120.825L90 69H65V140H80.1042V85.0657Z" fill="white"/>
<path d="M193 140L218 140L218 69L202.896 69L202.896 123.934L201.854 123.934L187.792 72.1095L173.208 72.1095L158.625 124.453L157.583 124.453L157.583 69L143 69L143 140L168 140L180.5 88.1752L193 140Z" fill="black"/>
<path fill-rule="evenodd" clip-rule="evenodd" d="M221 143L190.638 143L180.5 100.97L170.362 143L140 143L140 66L160.583 66L160.583 106.246L170.93 69.1095L190.086 69.1095L199.896 105.261L199.896 66L221 66L221 143ZM202.896 123.934L201.854 123.934L187.792 72.1095L173.208 72.1095L158.625 124.453L157.583 124.453L157.583 69L143 69L143 140L168 140L180.5 88.1752L193 140L218 140L218 69L202.896 69L202.896 123.934Z" fill="white"/>
<path d="M57.208 229H55.998V218.773H59.293C59.7943 218.773 60.2477 218.826 60.6533 218.931C61.0589 219.035 61.4189 219.195 61.7334 219.409C62.0479 219.623 62.2917 219.91 62.4648 220.271C62.638 220.631 62.7246 221.05 62.7246 221.528C62.7246 221.925 62.6882 222.28 62.6152 222.595C62.5423 222.905 62.417 223.196 62.2393 223.47C62.0615 223.743 61.8291 223.971 61.542 224.153C61.2549 224.331 60.8857 224.472 60.4346 224.577C59.988 224.677 59.4684 224.728 58.876 224.728C58.4066 224.728 57.8506 224.698 57.208 224.639V229ZM58.9922 223.682C59.4388 223.682 59.8216 223.638 60.1406 223.552C60.4596 223.465 60.7035 223.358 60.8721 223.23C61.0452 223.103 61.1797 222.937 61.2754 222.731C61.3757 222.526 61.4372 222.34 61.46 222.171C61.4827 221.998 61.4941 221.79 61.4941 221.549C61.4941 220.97 61.2982 220.544 60.9062 220.271C60.5189 219.997 59.9902 219.86 59.3203 219.86H57.208V223.668C58.0876 223.677 58.6823 223.682 58.9922 223.682Z" fill="black"/>
<path d="M67.0345 219.833V223.251C67.2214 223.251 67.6065 223.256 68.1898 223.265C68.7777 223.274 69.2311 223.278 69.5502 223.278C70.4206 223.278 71.0267 223.135 71.3685 222.848C71.7103 222.556 71.8812 222.096 71.8812 221.467C71.8812 220.915 71.7171 220.505 71.389 220.236C71.0609 219.967 70.5117 219.833 69.7416 219.833H67.0345ZM73.515 229H72.1478L70.7533 225.828C70.375 224.976 70.1335 224.463 70.0287 224.29C69.696 224.313 69.3018 224.324 68.8461 224.324L67.0345 224.27V229H65.8246V218.773H69.058C69.4317 218.773 69.7621 218.783 70.0492 218.801C70.3363 218.819 70.6211 218.853 70.9037 218.903C71.1908 218.949 71.4392 219.015 71.6488 219.102C71.8584 219.184 72.0544 219.293 72.2367 219.43C72.419 219.562 72.5648 219.721 72.6742 219.908C72.7881 220.095 72.877 220.318 72.9408 220.578C73.0046 220.833 73.0365 221.123 73.0365 221.446C73.0365 222.084 72.8679 222.633 72.5306 223.094C72.1979 223.554 71.724 223.873 71.1087 224.051C71.1087 224.06 71.1543 224.142 71.2455 224.297C71.3366 224.452 71.4437 224.643 71.5668 224.871C71.6944 225.094 71.7923 225.281 71.8607 225.432L73.515 229Z" fill="black"/>
<path d="M77.0593 229V218.89H82.8562L82.8083 219.936H78.2419V223.244H82.5827V224.276H78.2419V227.954H82.9587L82.904 229H77.0593Z" fill="black"/>
<path d="M91.1993 228.378L88.0958 221.159L87.836 220.469L87.8839 222.943V229H86.7764V218.89H88.3077L91.8282 226.942L95.3145 218.89H96.8048V229H95.6563V222.916L95.7042 220.496L95.4512 221.187L92.3546 228.378H91.1993Z" fill="black"/>
<path d="M102.325 229H101.142V218.89H102.325V229Z" fill="black"/>
<path d="M114.209 218.89V225.452C114.209 226.614 113.89 227.521 113.252 228.173C112.618 228.825 111.652 229.15 110.353 229.15C109.054 229.15 108.095 228.825 107.475 228.173C106.856 227.521 106.546 226.61 106.546 225.438V218.89H107.735V225.459C107.735 226.375 107.952 227.049 108.385 227.482C108.818 227.915 109.487 228.132 110.394 228.132C111.278 228.132 111.937 227.913 112.37 227.476C112.807 227.038 113.026 226.364 113.026 225.452V218.89H114.209Z" fill="black"/>
<path d="M122.819 228.378L119.715 221.159L119.455 220.469L119.503 222.943V229H118.396V218.89H119.927L123.447 226.942L126.934 218.89H128.424V229H127.276V222.916L127.323 220.496L127.07 221.187L123.974 228.378H122.819Z" fill="black"/>
<path d="M137.741 223.948C137.741 225.247 138.039 226.268 138.636 227.011C139.233 227.749 140.115 228.118 141.282 228.118C142.448 228.118 143.326 227.749 143.913 227.011C144.506 226.272 144.802 225.252 144.802 223.948C144.802 222.618 144.504 221.585 143.907 220.852C143.314 220.118 142.441 219.751 141.288 219.751C140.135 219.751 139.256 220.118 138.65 220.852C138.044 221.585 137.741 222.618 137.741 223.948ZM146.067 223.948C146.067 224.718 145.96 225.423 145.745 226.061C145.536 226.699 145.23 227.248 144.829 227.708C144.433 228.164 143.932 228.519 143.326 228.774C142.719 229.025 142.038 229.15 141.282 229.15C140.261 229.15 139.386 228.934 138.657 228.501C137.932 228.063 137.387 227.457 137.023 226.683C136.663 225.903 136.483 224.99 136.483 223.941C136.483 222.324 136.904 221.048 137.747 220.113C138.59 219.179 139.771 218.712 141.288 218.712C142.783 218.712 143.952 219.184 144.795 220.127C145.643 221.066 146.067 222.34 146.067 223.948Z" fill="black"/>
<path d="M153.648 219.758C152.887 219.758 152.231 219.942 151.68 220.312C151.133 220.681 150.725 221.177 150.456 221.802C150.187 222.426 150.053 223.144 150.053 223.955C150.053 224.561 150.126 225.115 150.271 225.616C150.417 226.113 150.636 226.55 150.928 226.929C151.219 227.302 151.598 227.594 152.062 227.804C152.532 228.009 153.07 228.111 153.676 228.111C154.455 228.111 155.262 227.909 156.096 227.503L156.294 228.508C155.615 228.936 154.697 229.15 153.539 229.15C152.778 229.15 152.094 229.025 151.488 228.774C150.887 228.519 150.388 228.161 149.991 227.701C149.599 227.236 149.301 226.685 149.096 226.047C148.891 225.404 148.788 224.691 148.788 223.907C148.788 223.151 148.9 222.453 149.123 221.815C149.346 221.177 149.661 220.631 150.066 220.175C150.476 219.715 150.987 219.357 151.598 219.102C152.208 218.846 152.887 218.719 153.635 218.719C154.769 218.719 155.726 218.969 156.506 219.471L156.041 220.435C155.294 219.983 154.496 219.758 153.648 219.758Z" fill="black"/>
<path d="M163.657 219.758C162.896 219.758 162.239 219.942 161.688 220.312C161.141 220.681 160.733 221.177 160.464 221.802C160.195 222.426 160.061 223.144 160.061 223.955C160.061 224.561 160.134 225.115 160.28 225.616C160.426 226.113 160.644 226.55 160.936 226.929C161.228 227.302 161.606 227.594 162.071 227.804C162.54 228.009 163.078 228.111 163.684 228.111C164.463 228.111 165.27 227.909 166.104 227.503L166.302 228.508C165.623 228.936 164.705 229.15 163.547 229.15C162.786 229.15 162.103 229.025 161.497 228.774C160.895 228.519 160.396 228.161 159.999 227.701C159.608 227.236 159.309 226.685 159.104 226.047C158.899 225.404 158.796 224.691 158.796 223.907C158.796 223.151 158.908 222.453 159.131 221.815C159.355 221.177 159.669 220.631 160.075 220.175C160.485 219.715 160.995 219.357 161.606 219.102C162.217 218.846 162.896 218.719 163.643 218.719C164.778 218.719 165.735 218.969 166.514 219.471L166.049 220.435C165.302 219.983 164.504 219.758 163.657 219.758Z" fill="black"/>
<path d="M174.137 224.803C173.175 222.009 172.644 220.439 172.544 220.093C172.544 220.093 171.99 221.663 170.883 224.803H174.137ZM175.702 229L174.52 225.794H170.486L169.263 229H168.06L171.942 218.869H173.152L176.919 229H175.702Z" fill="black"/>
<path d="M179.128 227.332C180.18 227.852 181.308 228.111 182.511 228.111C183.992 228.111 184.733 227.437 184.733 226.088C184.733 225.65 184.614 225.297 184.378 225.028C184.145 224.755 183.719 224.541 183.099 224.386L181.089 223.88C179.554 223.493 178.786 222.672 178.786 221.419C178.786 220.457 179.116 219.744 179.777 219.279C180.438 218.81 181.351 218.575 182.518 218.575C183.129 218.575 183.701 218.641 184.234 218.773C184.767 218.906 185.214 219.083 185.574 219.307L185.232 220.271C184.927 220.102 184.521 219.951 184.015 219.819C183.514 219.687 183.006 219.621 182.491 219.621C180.841 219.621 180.016 220.193 180.016 221.337C180.016 221.724 180.141 222.036 180.392 222.273C180.647 222.506 181.028 222.684 181.534 222.807L183.455 223.271C184.275 223.467 184.897 223.782 185.321 224.215C185.745 224.643 185.957 225.254 185.957 226.047C185.957 227.077 185.64 227.854 185.006 228.378C184.378 228.897 183.521 229.157 182.436 229.157C181.625 229.157 180.903 229.075 180.269 228.911C179.64 228.743 179.141 228.544 178.772 228.316L179.128 227.332Z" fill="black"/>
<path d="M190.141 229H188.958V218.89H190.141V229Z" fill="black"/>
<path d="M194.619 223.948C194.619 225.247 194.917 226.268 195.514 227.011C196.111 227.749 196.993 228.118 198.16 228.118C199.327 228.118 200.204 227.749 200.792 227.011C201.384 226.272 201.68 225.252 201.68 223.948C201.68 222.618 201.382 221.585 200.785 220.852C200.192 220.118 199.32 219.751 198.167 219.751C197.014 219.751 196.134 220.118 195.528 220.852C194.922 221.585 194.619 222.618 194.619 223.948ZM202.945 223.948C202.945 224.718 202.838 225.423 202.624 226.061C202.414 226.699 202.109 227.248 201.708 227.708C201.311 228.164 200.81 228.519 200.204 228.774C199.598 229.025 198.916 229.15 198.16 229.15C197.139 229.15 196.264 228.934 195.535 228.501C194.81 228.063 194.266 227.457 193.901 226.683C193.541 225.903 193.361 224.99 193.361 223.941C193.361 222.324 193.783 221.048 194.626 220.113C195.469 219.179 196.649 218.712 198.167 218.712C199.661 218.712 200.83 219.184 201.674 220.127C202.521 221.066 202.945 222.34 202.945 223.948Z" fill="black"/>
<path d="M214.074 229H212.735L207.485 221.043L207.143 220.571C207.179 221.528 207.197 222.383 207.197 223.135V229H206.09V218.89H207.409L212.673 226.847L213.022 227.318C212.99 225.865 212.974 225.024 212.974 224.796V218.89H214.074V229Z" fill="black"/>
<path d="M217.452 227.332C218.505 227.852 219.633 228.111 220.836 228.111C222.317 228.111 223.057 227.437 223.057 226.088C223.057 225.65 222.939 225.297 222.702 225.028C222.47 224.755 222.043 224.541 221.424 224.386L219.414 223.88C217.878 223.493 217.11 222.672 217.11 221.419C217.11 220.457 217.441 219.744 218.101 219.279C218.762 218.81 219.676 218.575 220.843 218.575C221.453 218.575 222.025 218.641 222.558 218.773C223.092 218.906 223.538 219.083 223.898 219.307L223.556 220.271C223.251 220.102 222.846 219.951 222.34 219.819C221.838 219.687 221.33 219.621 220.815 219.621C219.165 219.621 218.341 220.193 218.341 221.337C218.341 221.724 218.466 222.036 218.717 222.273C218.972 222.506 219.352 222.684 219.858 222.807L221.779 223.271C222.599 223.467 223.221 223.782 223.645 224.215C224.069 224.643 224.281 225.254 224.281 226.047C224.281 227.077 223.964 227.854 223.331 228.378C222.702 228.897 221.845 229.157 220.761 229.157C219.949 229.157 219.227 229.075 218.594 228.911C217.965 228.743 217.466 228.544 217.096 228.316L217.452 227.332Z" fill="black"/>
<path d="M83.5 246L221.5 244.386L219 248.5L83.5 246Z" fill="white"/>
<path d="M117.5 261.5L209.5 260L207.5 264L117.5 261.5Z" fill="white"/>
<path d="M85.5 255.5L184.5 254.5C124.333 253.109 84.5219 252.252 70 252.5L85.5 255.5Z" fill="white"/>
<path d="M81.4816 195.92C72.7257 195.42 70.6655 192.922 69.1204 190.923C66.0301 185.925 65 179.229 65 171.932C65 165.936 66.3717 158.692 69.6354 153.942C73.7558 147.946 80.3585 149.087 87.0763 149.087C90.2374 149.445 92.2976 149.445 96.9331 150.944V157.94C94.3578 157.44 87.7115 156.94 84.0568 156.94C79.7896 156.94 79.6191 157.316 77.1263 160.309C74.6547 163.281 74.2709 166.911 74.2709 171.932C74.2709 177.139 74.2709 181.428 77.3612 185.426C79.7695 188.275 82.5117 188.924 87.2664 188.656C90.5886 188.469 94.3578 187.924 96.9331 187.425V194.921C89.7224 196.42 86.8262 195.92 81.4816 195.92Z" fill="black"/>
<path d="M101.053 195.42L112.15 149.945H129.662L140.197 195.42H131.069L129.009 186.329H112.527L109.97 195.42H101.053ZM114.042 179.429H127.433L122.574 157.441C122.574 157.441 118.994 157.535 118.968 157.441L114.042 179.429Z" fill="black"/>
<path d="M146.625 195.109V149.945H163.831C166.176 149.945 168.204 150.047 169.915 150.252C171.648 150.457 172.648 150.89 174.191 151.444C175.754 151.977 177.314 153.63 178.264 154.552C179.236 155.474 179.996 156.684 180.546 158.18C181.116 159.656 181.401 161.408 181.401 163.437C181.401 169.422 179.789 176.544 174.191 178.429C175.331 179.68 175.591 182.044 177.281 185.426L181.401 195.109H170.585L166.98 183.427C164.931 179.204 164.89 180.707 164.405 179.929C164.045 179.908 164.338 179.99 162.31 179.99L155.649 179.929V195.109H146.625ZM165.123 172.591C168.419 172.591 168.634 172.061 170.07 170.933C171.507 169.786 172.19 167.957 172.19 165.436C172.19 163.223 171.615 161.438 170.07 159.939C168.525 158.44 168.503 157.94 165.504 157.94H155.649V172.56C155.966 172.56 157.539 172.57 160.37 172.591C163.201 172.591 164.785 172.591 165.123 172.591Z" fill="black"/>
<path d="M188.097 194.975C194.793 195.956 197.035 195.956 202.633 195.956C207.936 195.956 212.15 194.808 215.277 192.512C218.403 190.196 219 186.896 219 182.612C219 179.025 219.048 176.228 217.21 174.219C215.393 172.21 212.362 170.529 208.115 169.177C207.524 168.992 206.235 168.592 204.25 167.978C202.264 167.363 201.017 166.963 200.51 166.778C197.954 166.02 196.676 164.391 196.676 161.89C196.761 159.861 197.447 158.416 198.736 157.555C200.046 156.674 201.63 156.496 204.186 156.496C207.735 156.496 213.849 156.496 217.97 157.555V151.499C212.819 149.999 209.784 149.5 204.186 149.5C199.243 149.5 195.271 150.606 192.272 152.82C189.293 155.034 187.804 158.18 187.804 162.259C187.804 168.08 190.92 172.056 197.152 174.188C197.637 174.373 198.43 174.639 199.528 174.987C200.648 175.315 201.841 175.664 203.109 176.033C204.376 176.381 205.147 176.596 205.422 176.678C209.309 177.765 210.759 179.784 210.759 182.612C210.759 184.744 210.555 186.322 209.161 187.47C207.767 188.597 205.707 189.161 202.982 189.161C196.76 189.161 190.81 188.373 188.612 187.979L188.097 194.975Z" fill="black"/>
<path fill-rule="evenodd" clip-rule="evenodd" d="M118.968 157.441C118.971 157.45 119.006 157.457 119.068 157.463C119.65 157.518 122.574 157.441 122.574 157.441L127.433 179.429H114.042L118.968 157.441ZM120.763 163.151L117.788 176.429H123.698L120.763 163.151ZM81.3961 198.92L81.3106 198.915C76.6901 198.651 73.525 197.847 71.2134 196.645C68.8187 195.401 67.5928 193.852 66.7468 192.757L66.6511 192.634L66.5689 192.501C63.0367 186.789 62 179.413 62 171.932C62 165.642 63.4133 157.7 67.1629 152.243C69.8006 148.404 73.3135 146.859 76.9238 146.301C79.3787 145.922 82.1383 145.987 84.6184 146.046C85.4795 146.067 86.307 146.087 87.0763 146.087H87.2456L87.4139 146.106C87.9074 146.162 88.3836 146.209 88.8562 146.256C91.3148 146.502 93.6759 146.737 97.8561 148.089L99.9331 148.761V161.578L96.3616 160.885C94.0428 160.435 87.6045 159.94 84.0568 159.94C81.8094 159.94 81.4548 160.088 81.3254 160.156C81.2817 160.179 81.1512 160.254 80.8359 160.586C80.5319 160.906 80.1921 161.314 79.6647 161.948C79.5912 162.037 79.5141 162.129 79.4329 162.227M81.3961 198.92H81.4816ZM93.9331 157.527C90.8396 157.198 86.6785 156.94 84.0568 156.94C79.927 156.94 79.6343 157.292 77.3601 160.028L77.1263 160.309C74.6547 163.281 74.2709 166.911 74.2709 171.932C74.2709 177.139 74.2709 181.428 77.3612 185.426C79.7695 188.275 82.5117 188.924 87.2664 188.656C89.4509 188.533 91.8286 188.255 93.9331 187.938C95.0292 187.772 96.0512 187.596 96.9331 187.425V194.921C91.2291 196.106 88.2249 196.042 84.5729 195.963C83.6084 195.942 82.5982 195.92 81.4816 195.92C72.7257 195.42 70.6655 192.922 69.1204 190.923C66.0301 185.925 65 179.229 65 171.932C65 165.936 66.3717 158.692 69.6354 153.942C73.1827 148.78 78.5696 148.907 84.2859 149.043C85.2096 149.065 86.1418 149.087 87.0763 149.087C87.6024 149.146 88.098 149.196 88.5801 149.244C90.9946 149.486 93.0691 149.694 96.9331 150.944V157.94C96.2052 157.799 95.152 157.657 93.9331 157.527ZM79.6943 183.538C80.5542 184.541 81.3587 185.049 82.3136 185.341C83.3869 185.671 84.8408 185.788 87.0977 185.661C90.2565 185.483 93.8884 184.959 96.3616 184.479L99.9331 183.786V187.357L109.794 146.945H132.046L143.625 196.923V146.945H163.831C166.255 146.945 168.407 147.05 170.27 147.273C172.135 147.494 173.409 147.962 174.645 148.416C174.825 148.482 175.005 148.548 175.185 148.613C176.491 149.064 177.605 149.894 178.394 150.56C179.049 151.115 179.668 151.725 180.092 152.142C180.186 152.235 180.27 152.318 180.343 152.389C181.695 153.676 182.677 155.29 183.353 157.123C184.082 159.019 184.401 161.148 184.401 163.437C184.401 166.651 183.975 170.341 182.682 173.582C181.762 175.886 180.335 178.113 178.2 179.687C178.244 179.808 178.285 179.925 178.325 180.036L178.354 180.117C178.392 180.222 178.429 180.328 178.467 180.433C178.863 181.545 179.28 182.714 179.964 184.085L180.005 184.167L185.017 195.946L185.864 184.439L189.141 185.026C191.197 185.395 196.968 186.161 202.982 186.161C205.348 186.161 206.616 185.664 207.264 185.146C207.428 185.009 207.516 184.879 207.594 184.601C207.702 184.216 207.759 183.637 207.759 182.612C207.759 181.739 207.55 181.272 207.266 180.94C206.937 180.554 206.218 180.016 204.614 179.568L204.589 179.561L204.564 179.553C204.328 179.483 203.596 179.278 202.314 178.925L202.292 178.92L202.27 178.913C201.001 178.544 199.806 178.195 198.685 177.866L198.653 177.857L198.621 177.847C197.548 177.507 196.704 177.225 196.134 177.011C192.654 175.813 189.78 174.011 187.779 171.457C185.746 168.863 184.804 165.733 184.804 162.259C184.804 157.34 186.659 153.254 190.482 150.412L190.49 150.406C194.151 147.705 198.809 146.5 204.186 146.5C210.091 146.5 213.409 147.046 218.808 148.618L220.97 149.247V161.423L217.223 160.46C213.549 159.516 207.86 159.496 204.186 159.496C201.615 159.496 200.887 159.723 200.411 160.044L200.402 160.049C200.151 160.217 199.745 160.604 199.677 161.95C199.686 162.632 199.855 162.958 199.995 163.136C200.153 163.337 200.511 163.649 201.364 163.902L201.451 163.928L201.536 163.959C201.959 164.113 203.127 164.489 205.137 165.112C207.122 165.726 208.414 166.127 209.009 166.313L209.017 166.315L209.026 166.318C213.484 167.738 217.098 169.625 219.43 172.202C220.867 173.776 221.483 175.595 221.758 177.362C222.003 178.932 222.001 180.662 222 182.271C222 182.385 222 182.499 222 182.612C222 187.076 221.411 191.701 217.063 194.923L217.052 194.93C213.252 197.721 208.344 198.956 202.633 198.956C196.953 198.956 194.553 198.953 187.662 197.944L185.748 197.663L185.938 198.109H168.371L164.182 184.534C163.813 183.784 163.543 183.294 163.352 182.981C163.075 182.987 162.736 182.99 162.31 182.99H162.296L158.649 182.956V198.109H143.9L143.972 198.42H128.673L126.612 189.329H114.8L112.243 198.42H97.2334L97.3615 197.895C91.4183 199.116 88.1058 199.043 84.4342 198.962C83.4906 198.941 82.5233 198.92 81.4816 198.92M112.527 186.329H129.009L131.069 195.42H140.197L129.662 149.945H112.15L101.053 195.42H109.97L112.527 186.329ZM155.649 179.929L162.31 179.99C163.644 179.99 163.974 179.955 164.146 179.936C164.235 179.926 164.282 179.921 164.405 179.929C164.548 180.159 164.653 180.19 164.782 180.228C165.089 180.319 165.536 180.451 166.98 183.427L170.585 195.109H181.401L177.281 185.426C176.511 183.886 176.038 182.557 175.644 181.448C175.606 181.342 175.569 181.237 175.532 181.135C175.112 179.962 174.762 179.056 174.191 178.429C175.198 178.09 176.076 177.581 176.84 176.94C180.317 174.017 181.401 168.345 181.401 163.437C181.401 161.408 181.116 159.656 180.546 158.18C179.996 156.684 179.236 155.474 178.264 154.552C178.165 154.456 178.06 154.352 177.948 154.242L177.948 154.242C176.988 153.297 175.591 151.921 174.191 151.444C173.981 151.369 173.782 151.296 173.589 151.225C172.363 150.777 171.412 150.429 169.915 150.252C168.204 150.047 166.176 149.945 163.831 149.945H146.625V195.109H155.649V179.929ZM217.21 174.219C215.393 172.21 212.362 170.529 208.115 169.177C207.524 168.992 206.235 168.592 204.25 167.977C202.264 167.363 201.017 166.963 200.51 166.778C197.954 166.02 196.676 164.391 196.676 161.89C196.761 159.861 197.447 158.416 198.736 157.555C200.046 156.673 201.63 156.496 204.186 156.496C206.945 156.496 211.253 156.496 214.97 156.993C216.035 157.136 217.052 157.319 217.97 157.555V151.498C212.819 149.999 209.784 149.5 204.186 149.5C199.243 149.5 195.271 150.606 192.272 152.82C189.293 155.034 187.804 158.18 187.804 162.259C187.804 168.08 190.92 172.056 197.152 174.188C197.637 174.373 198.43 174.639 199.528 174.987C200.648 175.315 201.841 175.664 203.109 176.033C204.376 176.381 205.147 176.596 205.422 176.678C209.309 177.765 210.759 179.784 210.759 182.612C210.759 184.744 210.555 186.322 209.161 187.47C207.767 188.597 205.707 189.161 202.982 189.161C198.666 189.161 194.481 188.782 191.588 188.418C190.31 188.257 189.285 188.1 188.612 187.979L188.097 194.975C194.793 195.956 197.035 195.956 202.633 195.956C207.936 195.956 212.15 194.808 215.277 192.512C218.403 190.196 219 186.896 219 182.612L219 182.346C219.001 178.887 219.002 176.178 217.21 174.219ZM79.6943 183.538C77.3605 180.484 77.2709 177.257 77.2709 171.932C77.2709 166.917 77.7117 164.297 79.4329 162.227M168.205 168.584C168.665 168.212 169.19 167.434 169.19 165.436C169.19 163.824 168.809 162.895 167.981 162.092C167.76 161.878 167.569 161.684 167.413 161.525L167.384 161.496C167.234 161.343 167.133 161.24 167.04 161.15C166.976 161.087 166.931 161.048 166.904 161.024C166.787 160.999 166.414 160.94 165.504 160.94H158.649V169.578C159.162 169.582 159.74 169.586 160.381 169.591H165.123C166.694 169.591 167.062 169.449 167.123 169.423L167.125 169.422C167.139 169.416 167.185 169.396 167.338 169.28C167.428 169.212 167.528 169.131 167.682 169.005L167.716 168.978C167.851 168.867 168.019 168.73 168.205 168.584ZM155.649 157.94H165.504C168.098 157.94 168.465 158.314 169.516 159.385C169.68 159.552 169.861 159.736 170.07 159.939C171.615 161.438 172.19 163.223 172.19 165.436C172.19 167.957 171.507 169.785 170.07 170.933C169.903 171.064 169.753 171.187 169.612 171.302C168.543 172.176 168.036 172.591 165.123 172.591H160.37C157.539 172.57 155.966 172.56 155.649 172.56V157.94Z" fill="white"/>
<path d="M189 20H81.5L54 53.5L225 51.5L60.5 49L70 37L189 35L75.5 33L76.5 28L82.5 23H183.5L193 25.5C165.078 26.0858 126 26.5 100.5 27C75 27.5 158.408 28.8272 195.5 29H212.5L232.5 33.5L239 41L123 43C192.2 44.6 231.167 44.3333 240 44L244.5 57L148 59C200.4 59.8 241.5 60.3333 252 60.5L241.5 40C240 38 236.8 33 232 29C227.2 25 206.5 22 189 20Z" fill="white"/>
<defs>
<linearGradient id="paint0_linear" x1="5.5" y1="141" x2="345.603" y2="99.3408" gradientUnits="userSpaceOnUse">
<stop stop-color="#ACA99A"/>
<stop offset="0.21875" stop-color="#E0E1E2"/>
<stop offset="0.466433" stop-color="#848B8D"/>
<stop offset="0.702986" stop-color="#B3BBC0"/>
<stop offset="0.892162" stop-color="#DBDBDB"/>
</linearGradient>
</defs>
</svg>
