<svg width="335" height="335" viewBox="0 0 335 335" fill="none" xmlns="http://www.w3.org/2000/svg">
<defs>
    <filter id="shadow">
      <feDropShadow dx="4" dy="4" stdDeviation="8"/>
    </filter>
</defs>
<path style="filter:url(#shadow);" d="M182.352 40.6946C194.775 37.3658 208.031 40.9176 217.125 50.0121L284.214 117.101C293.309 126.195 296.86 139.451 293.531 151.874L268.975 243.519C265.646 255.943 255.943 265.646 243.519 268.975L151.874 293.531C139.451 296.86 126.196 293.308 117.101 284.214L50.0122 217.125C40.9177 208.031 37.3659 194.775 40.6947 182.352L65.2509 90.7066C68.5797 78.2833 78.2834 68.5796 90.7068 65.2508L182.352 40.6946Z" fill="#C4C4C4"/>
<path d="M259.5 157.474C266.833 161.708 266.833 172.292 259.5 176.526L129 251.87C121.667 256.104 112.5 250.812 112.5 242.344V91.6558C112.5 83.188 121.667 77.8956 129 82.1295L259.5 157.474Z" fill="white"/>
</svg>
