<svg width="335" height="335" viewBox="0 0 335 335" fill="none" xmlns="http://www.w3.org/2000/svg">
<defs>
    <filter id="shadow">
      <feDropShadow dx="4" dy="4" stdDeviation="8"/>
    </filter>
</defs>
<path style="filter:url(#shadow);" d="M151.874 293.531C139.451 296.86 126.195 293.308 117.101 284.214L50.0121 217.125C40.9176 208.031 37.3658 194.775 40.6946 182.352L65.2508 90.7066C68.5796 78.2833 78.2834 68.5796 90.7067 65.2508L182.352 40.6946C194.775 37.3657 208.031 40.9176 217.125 50.0121L284.214 117.101C293.308 126.195 296.86 139.451 293.531 151.874L268.975 243.519C265.646 255.943 255.943 265.646 243.519 268.975L151.874 293.531Z" fill="#C4C4C4"/>
<path  d="M74.7261 176.752C67.3928 172.518 67.3928 161.934 74.7261 157.7L205.226 82.3555C212.559 78.1216 221.726 83.4139 221.726 91.8817L221.726 242.57C221.726 251.038 212.559 256.33 205.226 252.096L74.7261 176.752Z" fill="white"/>
</svg>
