<svg width="1204" height="1290" viewBox="-300 450 1400 1450" fill="none" xmlns="http://www.w3.org/2000/svg">
<g filter="url(#filter0_d)">
<path d="M 683.4 285.9 C 719.3 243.6 774.9 223.2 829.7 232.3 L 1105 277.8 L 1379.6 327.7 C 1434.2 337.7 1479.6 375.6 1499.2 427.6 L 1597.4 688.8 L 1691.4 951.5 C 1710.2 1003.8 1700 1062.1 1664.8 1105 L 1487.7 1320.7 L 1307.2 1533.5 C 1271.2 1575.8 1215.7 1596.2 1160.9 1587.1 L 885.6 1541.6 L 611 1491.7 C 556.4 1481.7 511 1443.8 491.4 1391.8 L 393.2 1130.6 L 299.1 867.9 C 280.4 815.6 290.5 757.3 325.8 714.4 L 502.9 498.7 L 683.4 285.9 Z" fill="#ff7a00"/>
</g>
<defs>
<filter id="filter0_d" x="0.103516" y="0.183105" width="1703.83" height="1789.67" filterUnits="userSpaceOnUse" color-interpolation-filters="sRGB">
<feColorMatrix type="matrix" values="0 0 0 0 0 0 0 0 0 0 0 0 0 0 0 0 0 0 0.25 0"/>
<feBlend mode="normal" in="SourceGraphic" in2="effect1_dropShadow" result="shape"/>
</filter>
</defs>
</svg>
